<svg aria-hidden="true" style="position: absolute; width: 0; height: 0; overflow: hidden;" version="1.1" xmlns="http://www.w3.org/2000/svg" xmlns:xlink="http://www.w3.org/1999/xlink">
<defs>
<symbol id="icon-close" viewBox="0 0 32 32">
<path stroke-linejoin="round" stroke-linecap="round" stroke-miterlimit="4" stroke-width="2.4" d="M24 8l-16 16"></path>
<path stroke-linejoin="round" stroke-linecap="round" stroke-miterlimit="4" stroke-width="2.4" d="M8 8l16 16"></path>
</symbol>
<symbol id="icon-dropdown" viewBox="0 0 20 20">
<path d="M5 12.5L10 7.5L15 12.5"  stroke-width="2" stroke-linecap="round" stroke-linejoin="round"/>
</symbol>
<symbol id="icon-fav" viewBox="0 0 32 32">
<path stroke-linejoin="round" stroke-linecap="round" stroke-miterlimit="4" stroke-width="1.7778" d="M27.787 6.147c-0.681-0.681-1.49-1.222-2.38-1.591s-1.844-0.559-2.807-0.559c-0.963 0-1.917 0.19-2.807 0.559s-1.698 0.909-2.38 1.591l-1.413 1.413-1.413-1.413c-1.376-1.376-3.241-2.148-5.187-2.148s-3.811 0.773-5.187 2.148c-1.376 1.376-2.148 3.241-2.148 5.187s0.773 3.811 2.148 5.187l11.787 11.787 11.787-11.787c0.681-0.681 1.222-1.49 1.591-2.38s0.559-1.844 0.559-2.807c0-0.963-0.19-1.917-0.559-2.807s-0.909-1.699-1.591-2.38z"></path>
</symbol>
<symbol id="icon-car" viewBox="0 0 32 32">
<path fill="#adc4e5" style="fill: var(--color1, #adc4e5)" d="M3.964 13.423h-2.472c-0.724 0-1.316-0.592-1.316-1.316v-0.044c0-0.326 0.267-0.593 0.593-0.593h3.195c0.326 0 0.593 0.267 0.593 0.593v0.766c0 0.327-0.267 0.594-0.593 0.594z"></path>
<path fill="#adc4e5" style="fill: var(--color1, #adc4e5)" d="M28 13.423h2.472c0.724 0 1.316-0.592 1.316-1.316v-0.044c0-0.326-0.267-0.593-0.593-0.593h-3.195c-0.326 0-0.593 0.267-0.593 0.593v0.766c-0 0.327 0.267 0.594 0.593 0.594z"></path>
<path fill="#e1e7f1" style="fill: var(--color2, #e1e7f1)" d="M25.919 4.883c-6.625-0.987-13.249-0.987-19.874 0l-2.976 7.659h25.826l-2.976-7.659z"></path>
<path fill="#2a466f" style="fill: var(--color3, #2a466f)" d="M7.798 22.717v3.598c0 1.062-0.869 1.931-1.931 1.931h-3.76c-1.062 0-1.931-0.869-1.931-1.931v-5.195l7.622 1.597z"></path>
<path fill="#2a466f" style="fill: var(--color3, #2a466f)" d="M31.788 21.119v5.195c0 1.062-0.869 1.931-1.931 1.931h-3.76c-1.062 0-1.931-0.869-1.931-1.931v-3.598l7.622-1.597z"></path>
<path fill="#adc4e5" style="fill: var(--color1, #adc4e5)" d="M25.145 13.595h-1.054c0-2.090-1.701-3.791-3.791-3.791s-3.791 1.701-3.791 3.791h-1.054c0-2.671 2.174-4.845 4.845-4.845s4.845 2.174 4.845 4.845z"></path>
<path fill="#5786cc" style="fill: var(--color4, #5786cc)" d="M15.982 22.717h14.209c0.882 0 1.597-0.715 1.597-1.597v-4.922c0-0.301-0.085-0.596-0.246-0.851l-1.296-2.058c-0.293-0.464-0.803-0.746-1.352-0.746h-25.826c-0.549 0-1.059 0.282-1.352 0.746l-1.296 2.058c-0.161 0.255-0.246 0.55-0.246 0.851v4.922c0 0.882 0.715 1.597 1.597 1.597h14.209z"></path>
<path fill="#5786cc" style="fill: var(--color4, #5786cc)" d="M25.919 4.883c-0.273-0.702-0.948-1.164-1.701-1.164h-16.471c-0.753 0-1.429 0.462-1.701 1.164h19.874z"></path>
<path fill="#e1e7f1" style="fill: var(--color2, #e1e7f1)" d="M9.309 19.687h-4.947c-0.503 0-0.911-0.408-0.911-0.911v-2.028c0-0.503 0.408-0.911 0.911-0.911h4.947c0.503 0 0.911 0.408 0.911 0.911v2.028c0 0.503-0.408 0.911-0.911 0.911z"></path>
<path fill="#e1e7f1" style="fill: var(--color2, #e1e7f1)" d="M27.602 19.687h-4.947c-0.503 0-0.911-0.408-0.911-0.911v-2.028c0-0.503 0.408-0.911 0.911-0.911h4.947c0.503 0 0.911 0.408 0.911 0.911v2.028c0 0.503-0.408 0.911-0.911 0.911z"></path>
<path fill="#adc4e5" style="fill: var(--color1, #adc4e5)" d="M18.398 18.289h-4.832c-0.291 0-0.527-0.236-0.527-0.527s0.236-0.527 0.527-0.527h4.832c0.291 0 0.527 0.236 0.527 0.527s-0.236 0.527-0.527 0.527z"></path>
</symbol>
</defs>
</svg>
